<?xml version="1.0" encoding="UTF-8"?><svg id="b" xmlns="http://www.w3.org/2000/svg" viewBox="0 0 284.1072 284.1083"><g id="c"><path d="M142.054,0c78.4403,0,142.0532,63.6134,142.0532,142.0543s-63.6129,142.054-142.0532,142.054h-.0006v-8.7123h.0006c73.6296,0,133.3409-59.7118,133.3409-133.3417S215.6836,8.7125,142.054,8.7125h-.0006V0h.0006ZM142.0534,284.1083c-78.4414-.0003-142.0534-63.614-142.0534-142.054S63.612.0002,142.0534,0v8.7125c-73.6307.0003-133.3411,59.7115-133.3411,133.3418s59.7104,133.3414,133.3411,133.3417v8.7123Z" fill="#007642" fill-rule="evenodd" stroke-width="0"/><circle cx="142.0537" cy="116.6144" r="25.5742" fill="#f58345" stroke-width="0"/><path d="M199.4927,151.5509l-22.1471,2.0534,14.19-11.8281-11.0112-13.5261-7.7859,6.4471v29.1991l19.3921-1.745-19.3921,5.9749v12.8276h50.6908l-23.9366-29.4029ZM172.7385,134.6972l-30.6848,25.4081-30.6847-25.4084v29.1994l8.0557.7248,11.3364,9.4797-19.3921-5.9746v12.8276h61.3695v-12.8276l-19.3918,5.9746,11.3363-9.4797,8.0555-.7248v-29.1991ZM111.369,134.6969l-7.7857-6.4468-11.0112,13.5261,14.1897,11.8281-22.1471-2.0534-23.9363,29.4029h50.6906v-12.8276l-19.3921-5.9749,19.3921,1.745v-29.1994Z" fill="#007642" fill-rule="evenodd" stroke-width="0"/><path d="M226.5077,191.3258c-1.83,3.1388-3.8279,6.167-5.9848,9.0708h-30.42v-9.0708h36.4048ZM94.0048,200.3966h-30.4203c-2.1569-2.9038-4.1547-5.932-5.9845-9.0708h36.4048v9.0708h0ZM211.3543,211.0524c-3.2386,3.2601-6.7059,6.2915-10.3754,9.0705h-117.8504c-3.6694-2.779-7.1368-5.8104-10.3753-9.0705h138.6011ZM183.3043,230.7792c-11.6679,5.4457-24.5882,8.6528-38.2107,9.0703h-6.0795c-13.6224-.4175-26.5433-3.6246-38.211-9.0703h82.5012Z" fill="#007642" fill-rule="evenodd" stroke-width="0"/><path d="M168.5849,205.3913v-2.4078c1.2441-.0079,2.2303-.2372,2.9542-.6925.7419-.4589,1.1078-1.0508,1.1078-1.7665,0-.6194-.3067-1.1608-.9198-1.6288-.4867-.3679-1.5341-.8138-3.1422-1.3354v-3.5909c.3027.0969.6236.1944.962.2922,1.8292-.7021,2.7389-1.6747,2.7389-2.9182,0-.8167-.3708-1.4451-1.1123-1.8947-.7467-.4496-1.607-.6747-2.5807-.6747h-.0079v-2.2983c2.0928.0009,3.7715.4365,5.0408,1.3076,1.2705.8671,1.9032,2.0186,1.9032,3.4549,0,1.7433-1.1716,3.0693-3.5201,3.9778,2.8727,1.1379,4.3064,2.7437,4.3064,4.8221,0,1.5417-.7168,2.8219-2.1509,3.8313-1.3941.9825-3.2525,1.4913-5.5794,1.5219ZM168.5849,186.4757v2.2983c-1.0103.0012-1.878.2033-2.6076.6058-.7268.4039-1.0931.991-1.0931,1.7617,0,.7985.3958,1.4088,1.1866,1.8264.6154.3282,1.4548.6619,2.5141,1.0015v3.5909c-.4176-.1355-.8731-.2761-1.3666-.4218-.9692.3212-1.7453.7662-2.3341,1.3351-.5879.5689-.8847,1.1792-.8847,1.8216,0,.6653.3708,1.2753,1.1073,1.8442.7415.5644,1.8788.8444,3.4115.8444l.0666-.0003v2.4078l-.2245.0014c-2.5662,0-4.5043-.4728-5.8145-1.4088-1.3101-.936-1.963-2.1104-1.963-3.5283,0-2.0143,1.3947-3.4824,4.188-4.4093-2.3188-.9816-3.481-2.45-3.481-4.3954,0-1.5049.6429-2.7436,1.9233-3.7162,1.2756-.9729,3.0654-1.459,5.3646-1.459h.0071ZM132.0494,205.3885v-2.4874c1.3898-.0613,2.463-.7016,3.2236-1.9177.8008-1.2846,1.2109-3.0696,1.2311-5.3637-.7121,1.2342-1.5177,2.0327-2.4033,2.3859-.6658.2645-1.3484.4286-2.0514.4944v-2.6422c1.0106-.0156,1.8987-.3274,2.6649-.9402.7863-.6239,1.1817-1.5325,1.1817-2.7159,0-.8124-.3413-1.5554-1.0284-2.2207-.6837-.6661-1.6211-1.0012-2.8182-1.0049v-2.499c2.3377.0343,4.2313.809,5.6806,2.3199,1.4783,1.5463,2.2201,3.7579,2.2201,6.6348,0,2.9273-.712,5.3223-2.1407,7.1756-1.3742,1.783-3.293,2.7125-5.76,2.7811h0ZM157.5663,202.2451v2.863h-14.5698v-3.2116l6.0562-3.7395c1.8786-1.1653,3.1445-2.1977,3.7922-3.0969.6477-.8994.9689-1.7254.9689-2.4777,0-.9085-.3212-1.6702-.9689-2.2896-.6477-.6148-1.4879-.9269-2.5214-.9269-2.2598,0-3.5549,1.2804-3.8962,3.8313l-3.4308-.7937c.2619-1.6288,1.0378-3.0237,2.3383-4.1845,1.3003-1.1608,3.0011-1.7433,5.1072-1.7433,2.1804,0,3.926.578,5.226,1.7297,1.3053,1.1517,1.9578,2.6152,1.9578,4.3863,0,1.569-.5782,2.9682-1.7404,4.2027-1.1568,1.2342-4.0295,3.0512-8.6173,5.4507h10.2982ZM122.9318,205.1081h-15.139v-2.7025h5.9527v-11.585c-1.9774,1.6013-3.7774,2.7071-5.4039,3.3035v-3.3035c1.6514-.5828,2.6849-1.0003,3.0999-1.2432.4153-.2481,1.0236-.7067,1.8295-1.372.8011-.6698,1.3646-1.2756,1.6909-1.8215h2.378v16.0217h5.5919v2.7025h0ZM132.0494,186.4771v2.499h-.0198c-1.1322,0-2.0518.3351-2.7587,1.0049-.7121.6653-1.0681,1.4865-1.0681,2.4636,0,.8629.3314,1.6472.9938,2.3539.6625.7067,1.5869,1.0599,2.7734,1.0599l.0794-.0006v2.6422c-.2367.0221-.4754.0331-.7169.0331-1.8442,0-3.3919-.5368-4.6426-1.6197-1.2509-1.078-1.8737-2.5001-1.8737-4.2667,0-1.7756.6427-3.2439,1.933-4.4138,1.2903-1.1701,3.0013-1.7572,5.1369-1.7572l.1633.0014h0ZM132.0494,202.9011v2.4874c-.0981.0025-.197.0042-.2968.0042-1.6614,0-3.0308-.3628-4.1034-1.0783-1.078-.7157-1.7898-1.5599-2.1359-2.5282l2.9812-.7892c.7616,1.2711,1.8737,1.9089,3.3324,1.9089.0751,0,.1494-.0017.2225-.0048Z" fill="#007642" stroke-width="0"/><path d="M49.7557,78.7062c-1.2291,1.307-2.0265,3.5285-2.7454,5.5088v8.123c.3019-.3529.5046.0771.9111.3055.432.2427,1.495.4471,1.3651,1.2901h0c-.2205,1.4167-1.4025,1.832-2.2762,1.8178v3.5623c.4629-.0136.8737-.051,1.0667-.1335.5763-.1754,1.3671-.7327,1.1545.0998h0c-.036.1347-1.3195,2.933-2.2212,5v3.96c.8549-1.5978,1.4358-3.6646,2.2108-4.6646,1.2506-1.6144,1-3.6718,1.9746-5.4068,0,0,2.1475-3.5238,2.3814-4.6497.2327-1.1254.4558-2.0506.8217-2.7026.3643-.6485,1.1024-1.5321.669-1.8391-.1809-.1258-.7384-.3994-1.408-1.2881-.7568-.9946-1.2965.5151-1.2965.5151,0,0-.1849,1.0797-.6424,1.7966-.4558.7089-.7931.4578-1.1092.1032-.3172-.3467-.3132-1.1931-1.1381-1.6246-1.6109-.835,1.1705-6.2461,1.9004-6.8703.7656-.6522.9326-1.0857.8274-1.6007-.1125-.5151-1.319-1.1387-1.319-1.1387-.3143-.3489-.8461-.4578-1.1267-.1635ZM47.0103,84.215c-.2931.8065-.5729,1.5735-.8637,2.2215-.2237.4989-.6075.5723-1.1324.3903-.5225-.1828-.6475.5463-.6475.5463-.3058,1.1029-.6412,1.7541.4731,2.6093,0,0-.4453,1.4017-.5921,1.6636-.1452.258-.1979.521-.3657.3082-.1689-.2058-.6571-1.2269-.8836-1.6356-.39-.7118-1.8626-2.0449-1.7339-2.8276.0448-.286,1.4108-2.4902,1.6007-3.2389.1933-.7475-.6332-1.5956-1.8201-2.8312-.4587-.4785-.8756-.5944-1.2147-.5564v2.9006c.1979.0536.3901.243.3705.4357-.0181.1917-.2106.5046-.3705.6449v6.3411c1.1829,1.5103,2.6388,3.8588,2.856,6.0137-.8105,4.6534-1.2564,6.8182.3716,11.7097.4691,1.4057,1.0547,1.472,1.0547,1.472,1.319.1548,2.1994-.8376,2.8976-2.1422v-3.96c-.3917.8978-.7115,1.658-.8254,2.0016-1.0812,3.2522-1.7774-5.2821-1.2521-7.0121,0,0,1.1446.0712,2.0775.0442v-3.5623c-.5754-.0093-1.0173-.2049-.9606-.4234,0,0,.5655-2.4149.8983-2.9078.0212-.0312.0419-.0584.0623-.0822v-8.123ZM39.8304,80.8645c-.538.0598-.8795.5065-.8795.5065,0,0-.3759.4003-1.6773-.4748-1.6903-1.1429-2.4576.6095-2.7618,1.3524-.3016.7441.3478,1.0545-.0831,2.128-.4274,1.0706,1.1957,2.3125,1.4965,2.9942.3041.6809.0515,1.7354-.2203,1.8176-.2707.0751-1.26-.7075-1.26-.7075-2.1974-1.0384.3543,3.7485.2117,4.3965,0,0,.1418.7628-.0059,1.1324-.1545.3739.661,1.0571,2.0344,1.656,2.1844.9587,1.9233-2.139,1.6022-3.2629-.2078-.7444-.2481-2.1923-.0219-2.8021.0443-.1165.7379.5301,1.565,1.586v-6.3411c-.0836.0737-.1584.0998-.1944.0363h0s-.3195-.8578-.1006-1.0621c.0776-.0729.187-.0837.295-.0548v-2.9006Z" fill="#007642" stroke-width="0"/><path d="M129.2434,39.3533c-.2268.2827-.7742.3178-.9978.161-.2276-.1593-.1831-1.6534-.5655-2.266-.3022-.4844-1.5457-.2395-2.456.0579v1.7713l.0154-.0042c.4742-.1233.8314-.2327.8946.3364.038.3445.1071.768-.1129.654h0c-.0963-.0505-.4396-.0357-.7971-.0028v2.0063c1.3471-.0238,3.0895.2458,3.8126.1072.2489-.0485.5457-.0111,1.2827-.4329.7413-.4212.6083-2.0531.2407-2.5645-.3711-.5057-1.0854-.1134-1.3167.1763h0ZM125.2241,24.0919c.0633-.3232.0599-.6307,0-.917v.917ZM125.2241,37.3062c-.2375.0776-.4524.1587-.6219.2315-1.652.7042-1.6197,2.3531-2.5872,3.3727-.1162.127-.3285.1111-.659.212-.0723.0236-.1497.1713-.1497.1713-.0859.0201.4709.1899.4572.2678-.1201.6526.18,1.3343-.0198,1.9273-.1896.5956-.4408.9371-1.2064.6551-.1953-.0723-.3807-.2075-.5553-.3833v3.0963c.2942.1109.534.1704.6698.1772,1.0695.0544,1.9928-1.237,2.249-2.1064.193-.648.5071-2.0169.7532-2.3843.2389-.3495.8878-.4623,1.6701-.4762v-2.0063c-.4637.0425-.951.1153-.951.1153,0,0,.4811-.9618.951-1.0987v-1.7713h0ZM119.882,38.6149v-1.6052c.4532-.0542.9136-.1863.9623-.4411.0414-.2234-.1587-.5239-.5822-.5896h0c-.1086-.017-.2415-.0065-.3801.0187v-1.7107c.6687-.0927,1.3164-.1449,1.5573-.0074.9105.4388,1.8975,2.1095,1.0761,3.0654-.6143.7251-1.5996,1.3737-2.6334,1.2699h0ZM119.882,32.7517c.8983-.1244,1.906-.2012,2.3074-.4396.4912-.2894.9263-.3889,1.4927-.688.5698-.2982.2982-1.0786.0964-1.5262-.2104-.4487-1.3275-.1031-1.7056.0057-.7937.1987-1.5531.6032-2.1909.8986v1.7495h0ZM119.882,29.988v-2.9192c.3209-.0912.6775-.2318,1.1044-.4257.803-.3654,1.4626-1.3465,1.9998-1.5503.5363-.2013.4428-.6018.1823-.8515-.2611-.2495-.7895-.2353-1.9744-.2452-.5746-.004-.9751.0935-1.3121.2868v-2.3374c.0275-.0011.0569-.0034.0881-.0068.8309-.0921,2.7377-.8986,3.3492-.6837.9876.3433,1.7189,1.0315,1.9048,1.9199v.917c-.0351.18-.0904.3642-.1683.553-.864,2.0821-2.8809,2.3117-4.2721,3.7128-.2583.2699-.2217,1.1478-.6945,1.5191-.0346.0306-.1074.0689-.2072.1112ZM119.882,43.7606c-.5063-.5088-.9247-1.3558-1.2476-1.9814-.4328-.8382-.5813-2.1818-.5-2.8471.0876-.661.908-.5692,1.1001-.4853.216.0924.4329.1466.6475.1681v-1.6052c-.4218.0504-.8377.0331-.9099-.0156-.154-.0978.049-.72.049-.72,0,0,.4533-.2021.8609-.2764v-1.7107c-.4995.0691-1.0109.161-1.3731.2123-.8303.1173-1.0406.4382-1.6866.5955v9c.1269.2503.2783.5137.4566.794.6435,1.0103,1.8182,1.6725,2.6031,1.9681v-3.0963h0ZM116.8223,34.4429v-2.5932c1.0119-.2236,1.9442-.4441,2.3468-.5621.2134-.0629.4529-.1649.7129-.2854v1.7495c-.1951.027-.385.0562-.5624.0899-1.0015.1874-.796.3974-1.0276.6582-.2194.2531-.8722.7948-1.4697.9431h0ZM116.8223,30.8687c.5728-.1846,1.0542-.3314,1.3473-.3878.5272-.1001,1.3237-.3283,1.7124-.4929v-2.9192c-.286.0814-.5437.1236-.7968.1299-.531.0139-.6761-.2705-.6761-.2705,0,0-.1967-.9153.4836-1.7166h0c.3464-.4122.6324-.724.9893-.9287v-2.3374c-.3356.013-.4-.1378-.4-.1378,0,0,.0094-.4181-.1139-1.0301-.1188-.6165-.6112-.5386-1.3587-.4462-.7478.0882-.6211,1.0052-.6936,1.4837-.061.375-.2248.8626-.4935.9607v1.9547c.2965.004.5383.2038.5281.4108-.0111.2191-.1353.9405-.5281,1.165v1.6078l.045-.0031c.58-.0181.8462.5085.4252.6718-.1083.0411-.2775.0916-.4702.1426v2.1433ZM116.8223,35.0948l-.0508.012c-.688.1556-.6338-.5273-.0201-.648l.0709-.0159v-2.5932c-.7586.1676-1.5619.3368-2.2201.4658-.7152.1397-1.336.2636-1.785.3441v1.605c.913-.3169,1.2492-.3141,1.6568-.0454.4816.3195-.5306.6276-1.1029.8751-.5738.2457-.4487.9105-.5225.9646-.0082.0057-.0184.0099-.0314.0142v2.1841c.0366-.0516.0774-.1049.1247-.1599.6525-.7611,2.8426-1.6478,2.9339-1.1616-.6475.7486-.305,2.4641-.1922,2.7652.1091.3027.5723.6681.536,1.747-.0317.8597.097,1.6517.6027,2.6469v-9h0ZM112.8172,32.2526v-2.8117c.5669-.1174,1.1477-.4726,1.0995-.8042-.0258-.1792-.4852.0212-.5859-.2486-.0986-.2682-.0422-.7569-.0422-.7569,0,0,.1111-.3285.1644-.7991.0425-.3852-.0661-1.1069-.6358-.9538v-2.1254c.7299-.8533,1.6546-2.327,2.2521-2.8426,0,0,.6622-.6449.8235-.0913.1703.561.2747,1.7484.6862,1.94.0891.0414.1701.0437.2433.0168v1.9547c-.1029-.0011-.2126.021-.3206.0752h0c-.4156.2091-.0803,1.5497-.0803,1.5497.1574.0382.29.0144.4009-.0491v1.6078c-.5735.0587-1.3641.872-1.3641.872h0l.015.1363c.0114.1023.7816-.0473,1.3491-.197v2.1433c-.7393.2384-1.6314.54-2.4687.7934-.6616.2001-1.1688.4093-1.5364.5905ZM112.8172,32.6596c-.5142.0924-.8039.1281-.754.0672.0484-.0627.2902-.2458.754-.4742v-2.8117c-.0627.013-.125.0229-.1865.0297-.6203.0686-.7926-1.0737-.887-1.69-.0904-.6151-.004-1.2985.8042-1.7821h0c.0995-.0598.1888-.0984.2693-.1202v-2.1254c-.1134.1323-.2223.2503-.3243.3469-.5255.4768-.7364-.282-.7364-.282.4158-.4924.3115-1.1866.3115-1.1866-.0386-.5958-.1001-.6429-.7688-.5689-.6726.0745-.6386.7639-.6386.7639-.8014.5678-.3464,1.948-.6676,2.7819-.3041.7906.1673,3.1981.2529,3.9705.0864.7796.4765,1.1807.9119,1.3924.8144.3881-2.829,1.9253-2.9172,1.9704,0,0-.966.7356-1.9091.9439-.9434.2112-1.7971.2758-1.8031,1.4352-.0017,1.1568,1.2067.9587,1.8034.7092.6004-.2489,1.9071-.9689,2.501-1.0346.5936-.0658,2.1164-.025,3.4441-.5327.2004-.0762.3793-.142.5403-.1978v-1.605h0ZM112.8172,36.0731v2.1841c-.2146.3002-.292.5405-.7152.7432-.4955.2367-.6599.1758-1.3008,1.0063-.7282.9394-1.6892,1.7518-2.5064,2.6297-.8711.944-1.5225,2.0512-2.5152,2.8817-.358.3016-.8915.6716-1.4289.7807-.5335.1131-1.5988-.0887-.9136-1.211.6896-1.1236,1.6316-1.1245,1.6316-1.1245,1.0233-.432,3.2629-2.8652,4.4149-4.4912,0,0,1.4157-2.5894,2.2335-2.9914.7251-.362.9969-.3742,1.1001-.4076Z" fill="#007642" stroke-width="0"/><path d="M180.8989,29.9528s-1.2507-.3793-2.3673-.7322v2.0339c.8048.2146,1.5974.3583,1.9803.307.6888-.091,1.9313-1.1838.387-1.6087h0ZM178.5316,26.1411v-2.5606c.1216-.0108.2467.002.3751.0431.9459.3002,1.4955.5216,1.2019,1.2524-.2994.7287-.1758,1.2208-.7285,1.3056-.262.0408-.5539.0139-.8485-.0405ZM178.5316,29.2206c-.3991-.1261-.7812-.2492-1.0828-.3501-1.1409-.3821-1.8782-.0952-2.1594-.2128-.2795-.1211-1.1906.0127-.8028-.9451.3847-.9567,1.1387-2.1657,1.722-2.4372,0,0,.4627-.3915.2413-1.2912l.2696-1.315s.1819-.7574-.6736-.5241c-.8506.2298-1.26.396-1.3269,1.0808-.0654.69.0168,1.1435-.3704,1.4394-.0896.0689-.184.1075-.2795.1389v5.3572c.7594.0406,1.665.0777,2.6977.4995.4558.2004,1.1143.4201,1.7648.5936v-2.0339h0ZM178.5316,23.5805v2.5606c-.3257-.0599-.655-.1531-.9513-.2243-.9365-.2253-.6695-.8407-.6695-.8407.3251-.5746.9096-1.4332,1.6208-1.4956h0ZM174.0691,35.6825v-1.8153c.2627.0717.4904.2228.5133.5147.044.6018.0539,1.1223-.5133,1.3006h0ZM174.0691,32.7631v-1.9911c.3421-.1253.6845-.1429.9858.017.8368.4419.9474,1.0007.7869,1.4704-.1621.4705-.2851.8773-1.1188.6278-.2194-.0655-.4374-.1015-.6539-.1241ZM174.0691,24.8042c-.3133.1032-.6412.1299-.8621.8918-.2888.9947-.4518,1.8788-1.1041,1.889-.0694.0014-.1513-.0039-.2412-.0144v2.3278c.4624.0541.9238.1165,1.3839.1905.2514.0402.5261.0567.8235.0725v-5.3572h0ZM171.8617,24.705c.33-.4195.5922-.8782.6608-1.3016.1559-.9349.3736-1.84.487-2.1192.1142-.2739-.3889-.8377-1.1478-.4113v3.8321h0ZM174.0691,30.772v1.9911c-.6234-.0652-1.2348-.0199-1.8352-.2532.2631-.587,1.0471-1.449,1.8352-1.7379h0ZM174.0691,33.8672v1.8153c-.0797.0249-.1704.0433-.2742.0541-.5927.0621-1.3835.0156-1.9332.0717v-2.1362l.008.0054c.3758.2359,1.2464.2506,1.358.1797.0669-.0399.4865-.0873.8414.01h0ZM171.8617,45.2429v-1.9429c.6582.08,1.302.5057,1.3853,1.1495.1202.9139.2945,1.4887-.4096,1.2951-.364-.1-.6965-.3024-.9757-.5017h0ZM171.8617,41.517v-1.7645c.2883.0515.5105.0799.5341.0754.0552-.0102.6953.1457.6579.5998-.0329.4493-.2339,1.1262-1.0653,1.0941l-.1267-.0048h0ZM171.8617,38.0023v-1.4176c.5409.0786,1.086.0927.8884.5718-.1531.3722-.5066.644-.8884.8458h0ZM171.8617,32.6641v-1.1789c.0887.1111.1406.2489.1452.4119.0042.2151-.072.4929-.1452.767ZM171.8617,27.5706c-.8725-.1041-2.5135-.7566-1.2586-1.654.3736-.2645.8646-.7101,1.2586-1.2116v-3.8321l-.0533.0311c-.786.4899-.9793.0814-1.4964.6353-.523.5525-.7325,1.1392-1.7617.8637-.1851-.0496-.417-.0845-.6701-.102v2.4803c.1854-.0839.2313-.091.4045.0371.1188.1701.5607,1.41-.4045,1.7498v3.0084c1.3308.0825,2.6603.1673,3.9815.3218v-2.3278h0ZM171.8617,31.4852v1.1789c-.1159.4329-.2248.8564,0,1.008v2.1362c-.2358.0241-.4269.0672-.5394.1457-.3784.26-.3796.4275.2316.5743.0989.0238.2032.0414.3078.0564v1.4176c-.2052.1089-.4189.1971-.6137.2699-.557.2021-1.1494.86-.7027,1.1106.2702.1556.8717.2903,1.3164.3697v1.7645c-.8138-.0351-1.7821-.1275-2.0574.4485-.2905.6069-.8359,2.2705-1.2563,3.0129-.2506.4405-.3951.6951-.6678.9216v-12.1927c.6434-.0879,1.1897-.2188,1.3941-.4125.5737-.7296.3319-1.9851,1.4306-2.1259.5122-.0632.9425.0487,1.1568.3163h0ZM171.8617,43.3c-.7197-.087-1.4567.2398-1.4961,1.1503.2543.1562.5499.1321.8694.3266.1508.0955.3654.2795.6267.466v-1.9429ZM167.8802,22.301c-.8635-.0599-1.9769.0796-2.3567.5045-.1027.1162-.2416.3152-.3765.5533v2.016c.1896.0531.4476.0553.7897-.011,1.2439-.2415,1.7071-.4751,1.9435-.5825v-2.4803h0ZM167.8802,26.5682c-.1369.0482-.3022.0786-.5009.0848-1.1409.0329-1.0956-.3668-2.1283-.1522l-.104.0207v2.8669c.9105.0766,1.8221.1318,2.7332.1882v-3.0084h0ZM167.8802,33.7073v12.1927c-.1897.1578-.4414.3018-.8343.4858-.8254.3886-1.2574.9422-1.8989.7957v-2.0815l.0955.0303c1.2643.4153,1.7263-1.9649,1.8023-2.7623,0,0-.1117-.7053-.9864-.8901-.298-.0626-.6033-.108-.9114-.1437v-2.1711c.0842-.1207.1097-.2534,0-.3642v-2.1161c.5703-.1531,1.1469-.5488,1.6427-.8141.2245-.1165.1216-.5051-.6228-.4175-.3588.0425-.7069.1097-1.0199.1564v-1.7285c.5783-.0046,1.766-.0397,2.7332-.1718h0ZM165.147,32.7546v-2.223c.0785.0735.1494.1568.2081.2467.3316.5187,1.377.6777,1.377.6777.3813.0998-.1822.6197-.4847.8456-.3319.2219-.5947.0901-1.1004.453ZM165.147,23.3588c-.4085.7209-.7804,1.7983,0,2.016v-2.016h0ZM165.147,26.5215c-1.0117.1876-2.3159.0708-3.1958.0093-.9136-.0632-2.3839-.5853-3.1617.0819-.7759.6707-1.1829,1.7051-.476,1.9789.7093.2707,1.1642-.1335,2.0883.0887,1.5696.3773,3.1553.5746,4.7452.7081v-2.8669h0ZM165.147,30.5316v2.223c-.0485.0348-.0989.074-.1522.1185-.6072.5079-1.0457.4252-1.3907.0507-.3469-.373-.1173-2.0356.284-2.4982.3297-.3776.8853-.2435,1.2589.106h0ZM165.147,33.8791v1.7285c-.3382.0505-.6352.0774-.8612.023-1.4017-.337-.5317-1.7841.565-1.7524.0578.0014.1601.002.2962.0009h0ZM165.147,36.6828v2.1161c-.0669-.0678-.1842-.1276-.3696-.1721-1.7785-.4277-1.5069-2.1245.0119-1.883.1185-.0074.2381-.0287.3577-.061h0ZM165.147,39.1631v2.1711c-1.1032-.1276-2.245-.1315-3.2346-.3696-.6888-.1656-1.186-1.012-.1925-1.1124.9902-.0992,2.6884-.2248,3.0144-.3634.1366-.0589.3146-.1845.4127-.3257h0ZM165.147,45.1v2.0815c-.1003-.023-.2061-.0627-.3189-.1233-.8424-.4388-.7937-1.0347-.6315-1.5066.1746-.4417.2352-.6693.9504-.4516h0ZM158.4972,41.5292c-.5292.7892-.466,1.9862.2327,2.2978,1.0151.4581,2.3256-.5933,2.1014-1.6693-.7937.0651-1.6382-1.6702-2.3341-.6285Z" fill="#007642" stroke-width="0"/><path d="M217.2379,61.0526c.4751.5612,1.4788,1.6868,2.0877,2.0052.6041.3132,1.7297-.5803,2.2079-1.3011.4754-.7195.6514-1.4057.1466-2.2649-.5092-.8629-.9981-.7447-1.5248-.8033-.5417-.0658-3.2817-2.045-3.4764-2.3406-.2367-.3643,3.221-2.4242,4.3418-2.4069.7367.0156,1.7793-1.0701,1.8743-1.6203.244-1.3382-.7053-1.6957-1.6404-1.7368-1.8899-.1718-4.0879,2.3774-6.2096,3.2548v5.6293c.8203.5788,1.7898,1.1063,2.1929,1.5846h0ZM215.045,72.2636v-6.9801c.504,1.656,1.2572,3.2596,2.3703,4.493.3881.3954.8382,1.5627,1.116,2.5667.2911,1.0647-.1783,1.5327-.7526,1.4088-.4079-.0873-1.9729-.8943-2.7337-1.4884ZM215.045,53.8387c-.3266.1352-.6508.2307-.9723.2707-.7889.0978-.9031-.0641-2.3726-1.423-1.4757-1.3598-2.6515-1.4743-4.0172-1.7204-1.3678-.2437-2.162,1.025-2.204,1.5704-.0436.546,1.1724,1.393,1.8576,1.5741.6862.1766,1.4629.8702,1.4629.8702,1.1276.7464.1953,1.573-.4606,1.4259-2.2014-.502-4.2925,1.1772-6.5818.4597-.4949-.153-1.6775-.322-2.9574-1.4927-1.9893-1.8218-1.6412,1.3598-.7667,2.3579.5541.6437,1.1279.6074,1.6755.7021,3.3285.5987,5.8947.5086,9.3002.1106.3019-.0304.8997.1199,1.7385-.1965.845-.3157,1.5698-.5785,2.2329-.2633.6604.3158.769.3668,1.6438,1.0687.1329.1065.2746.2114.4212.3149v-5.6293h0ZM215.045,65.2835v6.9801c-.1729-.135-.3042-.2588-.3711-.3609-1.1199-1.3629-1.2299-3.9107-1.72-4.3812-.1128-.1083-1.5336-1.5778-1.4828-3.1365.0156-.4913.0827-5.1067.8257-5.1412,1.0604-.0465,2.4018.3345,2.2269,1.1307-.1723.792-.2642,1.7186-.1199,2.0724.1457.923.3526,1.8885.6412,2.8366Z" fill="#007642" stroke-width="0"/><path d="M251.4846,105.1021v-2.6739c.0437.0221.0888.051.135.0873.532.4184.6627.0156.3982-.4862-.1116-.2157-.3033-.5317-.5332-.907v-3.172c.2824.1891.6591.2721.6591.2721l1.2149.4734c.5877.1752,4.5661-1.5934,3.7917-2.0951-.3705-.2517-2.3616-1.7308-2.6502-1.4715-.2111.199-.3583.0791-.4436.3598-.1117.3563.6803,1.3555.3663,1.6092-.3113.2551-1.4148.8997-1.872.5624-.3297-.2429-.7654-.6384-1.0662-.6024v-3.045c.1687.0134.3076.0108.4556-.2494.2302-.4173-.1182-.5771-.4556-.6307v-1.601c.0735.0649.1372.1434.1854.2378h0c.3008.5922,1.116.2512.7424-.3299-.2086-.3246-.5349-.5576-.9278-.5865v-5.2484c1.014.142,3.4036.5652,2.5113,1.1429-.7501.4876-2.3434.8099-2.2848,1.207.0638.3986,1.3051-.1139,1.7561-.0467.4535.0669,1.1752-.1386,1.3181.5329.144.6715-.5437,1.2098-1.6427,1.4272-1.0995.2174-.5241.7353-.3336.7282.1905-.0076,1.5123.2605,1.8505.2552.3682.0428,2.3207-1.0313,3.0044.3262.6795,1.359-.5105,1.1177-.5105,1.1177,0,0-1.9565.0213-2.1685.5026-.1803.3966-.0672,1.2093-.1233,1.6909-.008.0507.1479.2378.2814.3957.2319.2781,1.5245.9088,1.9409.7237.5137-.2282.6279-.6681.8399-.7985.2129-.1335,1.1716-.3257,1.6107.055.4399.3838.3968.9861-.0383,1.8306-.4331.8504-.3623,1.0102-.3589,1.2818.0043.2682-.1077.6265-1.1049,1.0695-.8901.3954-2.2326,1.012-3.3622.6063-.6692-.2024-2.018-.4546-1.8082.1854.2917,1.2918,2.2195,2.7355,1.9012,3.9033-.3025,1.1379-1.5905,2.0157-2.3873,1.874-.3663-.068-.6676-.2463-.8913-.5139ZM251.4846,85.6051v5.2484c-.3084-.023-.6582.0802-1.0241.3625,0,0,.6406-.0246,1.0241.3161v1.601c-.0374-.006-.0745-.0108-.1108-.0142-.3614-.0388-.5788.4269-.5788.4269,0,0-.1077.2282-.3291.3365-.2234.108-.8133-.1763-1.0537.1083-.2474.286.3595.1902.6475.269.2883.0771.5448-.008.9657-.195h0c.1823-.0811.3297-.0616.4592-.0514v3.045c-.1176.0139-.2142.0941-.276.275-.0956.2724.0635.4748.276.6171v3.172c-.3055-.4995-.6786-1.1047-1.0187-1.7224-.5786-1.046-1.2748-1.9661-1.7479-2.3624v-3.9926c.1021-.0079.2087-.0448.3053-.1114.3249-.2197.074-.2619-.2432-.5468-.0212-.019-.0419-.034-.0621-.0462v-5.9678c.8295-.5088,1.6504-.8926,2.3794-.8163.0661.0065.2044.0232.3872.0487h0ZM251.4846,102.4282v2.6739c-.2639-.3158-.4198-.7557-.4467-1.2855-.0493-.9814-.311-1.1353-.311-1.1353,0,0,.2983-.4884.7577-.2531ZM248.718,86.3727v5.9678c-.282-.1698-.4569.277-.4569.277h0c-.0026.3007.2146.4461.4569.4274v3.9926l-.0555-.045c-.3325-.2591-1.0072-1.1166-1.5035-1.9758v-5.3424c.1998.0229.398.0572.5697.0901h0c.4204.0822.2776-.5068-.2573-.5794-.1035-.0145-.2092-.0045-.3124.021v-1.8037c.5088-.3373,1.0355-.7084,1.559-1.0296ZM243.5074,102.376s-.8337-1.8453-1.2614-2.8491v6.0279c.2089.2429.4371.3674.676.5553.4428.3455,1.4123-.0853,1.7226-.6103.5205-1.1591-.9442-2.4953-1.1372-3.1238h0ZM242.246,98.6136v-2.3582c.1462.0604.2786.1316.388.2132.5219.3833,1.0333-.1879.2291-.8765-.2262-.1927-.4278-.4104-.6171-.6389v-3.1249c.07.0941.1394.2004.208.3197,0,0,.3994.2846.7433.2852.3518.0009.915.7503,1.3856,2.2445.3951,1.2486,2.6401,2.5551,2.5259,3.8602-.0666.72-.517,1.5769-1.4774,1.6948-.9595.1199-2.0452-.3268-2.393-1.0204-.2106-.4215-.7005-.6466-.9924-.5987h0ZM247.159,87.4023c-.6551.4343-1.2807.8121-1.8323.9555-.4496.1259-.582-.0085-.582-.0085,0,0-.1735-.733-.3849-1.993-.2118-1.2586-1.2031-1.3184-1.2031-1.3184,0,0-.1522.3319-.9107.1843v2.2101l.0096.0122c.7359.9695.3861,1.802,1.0789,3.0356.5043,1.0109,2.9449,2.397,3.333,3.5003.1071.3166.2837.6766.4915,1.0363v-5.3424c-.2926-.0338-.5893-.0434-.8147.0116,0,0,.3855-.3742.8147-.4799v-1.8037ZM242.246,99.5269c-.0777-.182-.142-.3367-.1854-.4473-.1123-.2866-.006-.4348.1854-.466v-2.3582c-.546-.2253-1.285-.2956-1.7402-.1542-.5794.1806-.9213-.2474-.9213-.2474-.2897-.993-1.1676-1.7592-1.7983-2.8304-.6304-1.0732-1.4031-1.7688-2.3672-2.1149-.966-.3433-1.654.8881-1.533,1.6846.125.7926,1.4672,1.1236,1.4672,1.1236.775.2345,2.0039,2.7661,2.4325,3.4776.4393.7322.206,1.1367.1216,1.262-.2478.3104-1.5316.8657-2.0347.8645-.8261-.0122-3.1125-.6261-4.0808-1.6259-.3402-.2361-.5267-.9235-.7668-1.5534-.4853-1.2662-2.1702-.4516-2.7895.2358-.6999.7767.6981,2.2763.9504,2.6677.8504,1.3368,4.6154,2.4327,5.9805,2.7732.6492.153,1.571-.027,2.3386-.2115.7676-.1879,1.5713-.4677,2.2102-.5987.6355-.1281,1.0877,1.0639,1.0877,1.0639,0,0,.6434,1.4482.9603,2.5029.1437.4848.3065.7748.4828.98v-6.0279h0ZM242.246,91.8283v3.1249c-.5723-.6908-1.0344-1.4811-1.7399-1.9797-.1684-.1165-1.2413-1.226.1097-1.749,0,0,.8353-.4691,1.6302.6038h0ZM242.246,85.2222v2.2101c-.8637-1.1129-2.5957-.3486-3.5958.1483-.7611.3759-1.1979-.1437-1.22-.5752,0,0-.3073-.5995.5851-1.1131.8926-.5097,2.8037-.8204,2.8037-.8204,0,0,.3195-.1417,1.2419.1077.0655.0173.127.0312.1851.0426Z" fill="#007642" stroke-width="0"/><path d="M66.2848,53.1028c1.4043-1.9004,2.7876-3.6366,4.1145-5.5474.2262-.3376.4419-.237.4419-.237.5595.4995,1.1849.6378,1.8178.2653.6308-.3673.2679-1.6066.0275-1.7949-.2352-.1933-.6752-.7735-.678-1.3419-.0034-.5652-.1692-1.4777-.5599-1.8833-.3843-.4042-1.4873.0039-1.7994.4311-.4014.561,1.2441,2.2456.07,3.6819-1.3498,1.6388-2.7198,4.1245-4.4688,5.3371-.5754.3989-.9232.9213-1.2968,1.2515-.3756.3314-.9346.2954-.9675-.5709-.0306-.8688-.2988-1.0009-.4799-1.8714-.1775-.8722.7832-.9698.7832-.9698,0,0,1.2067-.0569,1.4372.4267.2233.4813.4416.6896,1.0369-.0828.8056-1.0287.5462-3.6459.3832-4.8804-.1238-.9437-1.1987-.8039-1.1987-.8039-.872.07-.8116.5627-.8116.5627,0,0,.2307.1278-.2231,1.0102-.4538.8844.1877,1.713.1877,1.713.2968.6157-.4284.7602-.4284.7602-.9799-.28-1.3419-.3452-2.1044.038-.7617.3836-.6089.8071-1.0434,1.825-.9176,2.1384.7424,3.8347,2.1518,5.1534,1.3634,1.2699,2.984-1.6132,3.6082-2.4724Z" fill="#007642" stroke-width="0"/><path d="M66.1314,60.7385c-.4805.1539-1.0925.6511-1.3926.5751-.2985-.0759.4473-1.0919.7908-1.4712.4068-.4467.483-1.4845.2347-2.1724-.2806-.7793-.9399-1.1481-1.3328-.3334-.1378.4133-.5134.9953-1.1914,1.7116-.7897.8461-1.9656,3.2726-.932,4.2344.7154.6789,2.1154-.1177,3.0291-.7509.9082-.6296.9779.0022.8237.1729-.9428,1.4045-.5868,2.3252-.8677,3.3055-.3934,1.3515-.2747,3.3417-.4711,4.7985.5301,1.5871,1.6223.9011,2.0115.5961.5391-.3881-.4315-2.6014-.1812-3.2823.2934-.8081,1.0525.0862,1.0525.0862.9026,1.7167,2.4608,3.5498,3.2307,3.9407.7633.3901,1.3002-.4782,1.0236-1.034-.2744-.5531-.9627-1.0336-.9627-1.0336-1.7172-1.294-2.5778-3.5053-2.9905-4.2525-.8416-1.5437-.1732-2.2958-.1899-3.9166-.0103-1.1974-1.2036-1.3255-1.6847-1.1741Z" fill="#007642" stroke-width="0"/><path d="M90.3747,54.9065l-2.7224,1.7115s-2.1345,1.4797-3.7896,2.1643c-1.6546.6834-1.4964-.4907-1.4964-.4907-.0814-1.9312-.6404-2.643-1.194-3.7485-.5536-1.1104-1.6905-1.6705-1.7509-1.9143-.063-.2426.5808-.5428.9042-1.1582.5173-.9884-.9725-1.5188-1.3807-2.0109-.4493-.5428-1.1231-.2656-1.4429-.0105-.322.258-.1479.8133-.5221,1.0724-.3742.2596-1.0457.0836-1.283-.6775-.1774-.4159-.1893-1.2229-.8484-2.0217-.6602-.794-1.1024-.5536-1.1024-.5536,0,0,.2529.2806-.3883,1.4292-1.2186,2.1906,2.0747,5.3654,4.2797,4.9887.5369-.0864.6931.1389.7325.1959.2665.4221,1.9023,3.6176,1.9976,3.9044.2883.6801.7483,2.1518-.5131,1.9256-2.4749-.8079-2.9347-.2027-3.1408.267-.2523.5738,1.4131,1.3955,1.7907,1.4809,1.2611.2956.6378.8104.6378.8104,0,0-1.1416.9839-.9,1.3269.2058.284.7038.5119.9654.3226.4782-.347.9513-1.2042,1.2371-1.6798.4521-.7348.7914-.1798,1.8604-.4281,3.202-.7265,5.7645-1.4422,8.1677-3.6881.6392-.5928.4283-1.2878.5051-2.0631.1106-1.1313-.6032-1.1548-.6032-1.1548Z" fill="#007642" stroke-width="0"/><path d="M75.9787,57.9602c.1636-.8943-.6168-1.3498-1.4377-.7426-.3473.2545-.5817.5079-.7651.7594v1.7821c.0578-.0371.1122-.0403.1573.0122.203.25.4788.5947.1982.7495h0c-.097.0552-.2271.07-.3555.0652v2.8372c.095.0907.2049.1624.339.199.6582.1839.7804.5246.7804.5246.1712,1.1277,1.1537,1.1447-.2546,2.1348-.278.2013-.3971.197-.8648-.0949v1.5559c.0984.023.2013.053.3101.0901.7801.2656,2.1844-1.3708,2.1801-2.0925.0037-.2418-.1128-.485-.049-.7225.5281-2.0373-1.3453-3.6329-1.2526-5.3952.0232-.4779.8546-.7679,1.0142-1.6623ZM73.7759,57.977c-.2523.3452-.4085.6871-.6296,1.0244-.3773.5808-1.0528,1.5463-1.3025,1.2923-.2463-.2534.2307-1.4046.2888-1.5837.0539-.1826.6174-1.209,1.1642-2.2618.5451-1.055-.1335-1.47-.6828-1.5497-.5536-.0751-1.0868.7864-1.5194,1.6526-.4292.8652-1.1571,1.8681-1.3884,1.9951-.2333.1241.6653-2.2706.8368-2.6416.1703-.3666.5992-.8785-.4241-1.7317-1.0137-.8569-1.5395-.2792-2.1818.0238-.6466.3058-.6092.4581-.8042,1.4077-.1899.951.3628,1.5967.3628,1.5967.4839.2319.5582-.5573.9309-.9074.707-.6695.5536.7501-.2418,2.5623-.5071,1.1543-.2695,1.819.5315,2.0769.8051.2634,1.425-1.1953,1.8105-1.8195.3872-.622.5976.6514.0383,2.1038-.5567,1.4525-.3552,2.0574.1324,2.4979.4912.4451,1.5916-1.1364,2.1285-1.2274.4374-.0737.5749.5774.9499.9355v-2.8372c-.2404-.0085-.4748-.0842-.4748-.0842,0,0,.2608-.6052.4748-.7427v-1.7821h0ZM73.7759,66.1867c-.0822-.0513-.1752-.1117-.2818-.1812-.6137-.4008-2.0483.2801-2.2765.974-.2902.9091.7974,1.4009,1.2838,1.0262.4048-.3099.7821-.3779,1.2745-.2631v-1.5559Z" fill="#007642" stroke-width="0"/><path d="M231.5903,151.2844c.2092-2.0477.3495-4.1164.4186-6.2033-.7421.6043-1.5647,1.1029-2.4046,1.612-1.2844.7782-2.622,1.5892-3.5512,3.0249l-1.2238,1.8907-.7443-.989v7.9744c.8481-.481,1.7061-.8319,2.5472-1.1752l.0022.0051c2.2318-.9116,4.309-1.7626,4.9559-6.1396h0ZM224.085,145.9286v-8.5484l1.2019,1.1616.9164-2.0678c.6894-1.5543,1.8845-2.5654,3.0322-3.5357.7549-.6383,1.4939-1.264,2.1354-1.9828.2398,1.9516.4232,3.922.536,5.9102.1332,4.6695-1.8252,5.8581-3.9334,7.1354-1.1182.6775-2.2683,1.3754-3.31,2.4341-.1913-.1789-.3844-.347-.5785-.5066h0ZM224.085,133.302c.0754.0482.1505.0978.2259.1488.8637-1.2104,1.8893-2.0781,2.8868-2.9208,1.9403-1.6407,3.7389-3.1623,2.6838-8.0898l.023-.0051c-.4014-1.8071-.8592-3.5926-1.3672-5.3569-.5252.826-1.1675,1.5704-1.8235,2.3312-.9811,1.1373-2.0027,2.3216-2.44,3.9648l-.1888.7095v9.2183h0ZM224.085,117.6312v-12.6408c.5867,1.296,1.1443,2.6079,1.6699,3.9362l-.0389.0147c1.8116,4.6976.2733,6.4817-1.3861,8.4056l-.2449.2843ZM224.085,150.6197l-.6135-.815c-1.0527-1.3991-2.3998-2.2028-3.7128-2.9865-1.1562-.6897-2.2923-1.368-3.2978-2.3324-.038,1.1846-.1043,2.3633-.1973,3.534-.1363,5.1743,1.8003,6.7921,3.8293,8.4829.9885.8246,1.9948,1.6634,2.8885,2.8066.3646-.2701.7331-.5051,1.1036-.7152v-7.9744h0ZM224.085,104.9904v12.6408c-.7747.9026-1.5514,1.8513-2.1518,3.0561-1.3207-.6186-2.5951-.9088-3.8475-1.1934-.9669-.22-1.9176-.4366-2.8457-.8677v-7.4395c.9286.1264,1.8695.3498,2.8191.8135l2.0276.9901.2324-2.2504c.1747-1.6883,1.0112-3.0316,1.8156-4.3239.5244-.8419,1.0384-1.6677,1.4312-2.5512.1755.3739.3484.7489.5191,1.1256h0ZM224.085,124.0837v9.2183c-1.1305-.7262-2.2661-1.1812-3.3832-1.6285-2.0443-.8187-4.013-1.6081-5.4618-4.7137v-4.9357c.7095.216,1.4278.3795,2.1538.5448,1.489.3387,3.0163.6865,4.4532,1.6943l1.8459,1.294.3921-1.4735h0ZM224.085,137.3802v8.5484c-.8881-.7287-1.8049-1.2758-2.7083-1.815-2.232-1.3317-4.365-2.6059-5.0765-7.5203-.0919-1.2642-.2163-2.52-.3708-3.7658,1.1373.7869,2.3573,1.2756,3.5989,1.7731,1.4176.5677,2.8709,1.15,4.1371,2.374l.4196.4056h0ZM215.24,108.0036c.7611.0825,1.5398.2098,2.3497.4422.4512-1.4266,1.1675-2.5778,1.8646-3.6975,1.2461-2.0012,2.4137-3.878.6471-7.5376-1.1052-1.9219-2.2813-3.7984-3.5212-5.6276-.2508.9371-.6329,1.8352-1.0227,2.7507-.1066.2503-.2137.5023-.3175.7575v12.9123ZM215.24,95.0913v12.9123c-.5527-.0601-1.0959-.0963-1.635-.1323-1.6554-.1103-3.2647-.2186-4.9572-1.3369v-6.3836c1.2024-.0839,2.44-.0813,3.7525.3209l2.1591.6619-.1216-2.249c-.0751-1.3986.3271-2.6269.8022-3.7933h0ZM215.24,111.1867v7.4395c-1.4057-.6528-2.7595-1.7977-4.0385-4.1927-.5366-1.3434-1.1117-2.6672-1.7232-3.9702,1.3062.3829,2.6002.4691,3.9169.5573.6089.0405,1.224.0816,1.8448.1661h0ZM215.24,122.0241v4.9357c-.2185-.4686-.4255-.9896-.6188-1.5716-.3075-1.3464-.6548-2.6784-1.0352-3.9954.5451.2599,1.0967.4618,1.654.6313h0ZM208.6478,96.9925c.8719-.0562,1.7722-.0689,2.7357.0501.2231-1.4805.7543-2.7286,1.2716-3.9438.9553-2.2439,1.8468-4.3387-.8356-7.9194-1.0245-1.2569-2.0821-2.486-3.1717-3.6851v15.4982ZM208.6478,81.4943v15.4982c-.4357.0277-.864.0666-1.2898.1051-2.1577.1959-4.2364.3833-6.8751-1.6191v-5.042c1.4164-.3566,2.8757-.6937,4.5317-.4601l2.2329.315-.4726-2.2048c-.3571-1.6699.0252-3.206.3935-4.6846.2412-.968.4773-1.9168.5785-2.8848.3028.3234.6029.6491.9009.9771h0ZM208.6478,100.1508v6.3836c-.8422-.5561-1.7048-1.3623-2.6042-2.5435-.7475-1.2557-1.5321-2.4871-2.3497-3.693,1.3471.1721,2.6363.0562,3.9479-.0629.333-.0303.6681-.0607,1.006-.0842h0ZM200.4829,87.1851c.936-.2205,1.9082-.4045,2.9848-.4402-.0105-1.4955.3175-2.8131.6373-4.0963.5819-2.3366,1.1273-4.525-1.8868-7.5558-.5717-.515-1.1503-1.0233-1.7353-1.5236v13.6159ZM200.4829,73.5692v13.6159c-.3297.0777-.6548.1596-.9783.2416-2.3629.5969-4.629,1.1684-8.168-1.1929l-.392-.3449v-3.6542l.5227-.2228c1.4079-.6026,2.8519-1.2211,4.6003-1.2503l2.2572-.0386-.8121-2.1044c-.6089-1.5789-.4788-3.1709-.3529-4.7061.0822-1.0032.163-1.9879.1066-2.9693,1.0925.8515,2.1648,1.7266,3.2165,2.626h0ZM200.4829,90.4365v5.042c-.3634-.2758-.7373-.5928-1.1237-.9573-.9507-1.1472-1.9369-2.2646-2.954-3.3528,1.349-.0425,2.5963-.3577,3.8653-.6783l.2124-.0536h0ZM190.9446,78.8071c.9552-.398,1.9505-.7699,3.0954-.9907-.2489-1.4769-.1372-2.8307-.0292-4.1505.1959-2.3848.3793-4.6293-2.8724-7.1014l-.1938-.1261v12.3687ZM190.9446,66.4384v12.3687c-.2396.0997-.4763.2012-.7124.3021-2.2059.9445-4.3234,1.8502-8.0923.1653-.4797-.3078-.963-.6103-1.4502-.9071v-2.8797c.2539-.1556.5065-.3144.7599-.474,1.2878-.8104,2.6085-1.6415,4.3461-1.9468l2.2255-.3912-1.1327-1.9553c-.8516-1.4701-.9675-3.0524-1.0783-4.5788-.074-1.0222-.1466-2.0248-.3632-3.0019,1.8746,1.0358,3.708,2.1359,5.4976,3.2987h0ZM190.9446,82.2347v3.6542c-1.0282-.8978-2.0812-1.7669-3.1578-2.6079,1.1213-.2186,2.1404-.6165,3.1578-1.0463h0ZM180.6897,71.7752c.8056-.487,1.656-.9494,2.6413-1.3077-.4748-1.4215-.574-2.7796-.6698-4.1037-.133-1.8312-.2608-3.577-1.9715-5.1655v10.5769ZM180.6897,61.1983v10.5769c-.3113.1882-.616.3798-.9193.5709-1.997,1.2566-3.9152,2.463-7.7755,1.4765-1.1281-.4977-2.2711-.9683-3.4282-1.4111v-1.1809c.6614-.4841,1.2725-1.0185,1.8902-1.559,1.1443-1.0004,2.319-2.0279,3.9897-2.6017l2.1362-.7339-1.4261-1.7549c-1.0712-1.3184-1.4295-2.8692-1.7742-4.3648-.2313-1.0032-.4584-1.9873-.8252-2.9236,1.7414.6296,3.4577,1.3104,5.1475,2.0421l-.0023.0051c1.3306.5898,2.2901,1.2112,2.9872,1.8584h0ZM180.6897,75.4877v2.8797c-.8689-.5298-1.7496-1.042-2.6414-1.5369.9525-.3515,1.8043-.8297,2.6414-1.3428h0ZM168.5667,67.1388c.5998-.5235,1.2127-1.0485,1.9015-1.5347-.6029-.2228-1.239-.4427-1.9015-.659v2.1937h0ZM168.5667,63.0558c.9173.2905,1.7927.5885,2.6116.8926-.4065-1.0159-.6401-2.0267-.8683-3.0169-.5496-.195-1.1327-.3866-1.7433-.5746v2.6989h0ZM168.5667,58.475c.3949.1171.7801.2361,1.1546.3566-.2571-.6644-.6098-1.2951-1.1546-1.8726v1.516ZM168.5667,56.959v1.516c-2.2008-.6537-4.6998-1.2555-7.2708-1.7898-1.0574-.2197-2.128-.4286-3.1961-.6247v-2.6587c2.2706.4111,4.5116.9071,6.7192,1.4851,1.8196.5448,2.9764,1.2549,3.7477,2.0721h0ZM168.5667,60.3569c-2.2626-.6959-4.9039-1.3393-7.6376-1.9074-.9369-.1947-1.8837-.3807-2.8293-.5567v2.5081c1.3484.2761,2.7108.5771,4.0541.8983,2.2357.5346,4.4229,1.127,6.4128,1.7566v-2.6989h0ZM168.5667,64.9451v2.1937l-.1848.1616-.3804.3314c-2.5634-.8947-5.5599-1.696-8.6374-2.3746-.4201-.0927-.8419-.1829-1.2643-.271v-2.7479c1.2112.2514,2.4321.5233,3.6377.8115,2.4058.5755,4.7483,1.2164,6.8292,1.8953h0ZM168.5667,71.2306v1.1809c-.3832-.1465-.7679-.2899-1.1542-.4303.4064-.2296.788-.4827,1.1542-.7506h0ZM158.0998,69.2719c.9873.2183,1.9675.4561,2.9395.7129,2.3984.2055,3.9612-.2775,5.2192-1.0386-2.2232-.7172-4.722-1.3672-7.2831-1.9318-.2911-.0644-.5833-.1273-.8756-.1894v2.4469ZM158.0998,53.4018v2.6587c-4.0663-.7473-8.0938-1.315-11.1974-1.6393.0022-.7577.0292-1.5338.0762-2.3247,3.7735.2075,7.4855.6471,11.1212,1.3053h0ZM158.0998,57.8928v2.5081c-4.0564-.8303-7.988-1.4355-10.9043-1.6918-.1242-.7954-.2052-1.6214-.2497-2.4735,3.1084.332,7.1192.906,11.154,1.6572h0ZM158.0998,62.2383v2.7479c-3.2462-.6766-6.5341-1.2164-9.4535-1.5854-.4527-.8816-.8037-1.8332-1.0693-2.846,2.8806.282,6.6538.8801,10.5228,1.6835h0ZM158.0998,66.825v2.4469c-1.372-.3033-2.7581-.5686-4.1576-.7948-1.6716-.8-2.9851-1.8423-4.0008-3.0875,2.5869.3636,5.3935.8495,8.1584,1.4354Z" fill="#fdb913" fill-rule="evenodd" stroke-width="0"/><path d="M125.9166,69.2719v-2.4469c2.765-.5859,5.5715-1.0718,8.1587-1.4354-1.0159,1.2452-2.3295,2.2875-4.0011,3.0875-1.3992.2262-2.7853.4915-4.1576.7948h0ZM125.9166,64.9862v-2.7479c3.8691-.8034,7.6423-1.4015,10.5228-1.6835-.2656,1.0128-.6165,1.9644-1.0692,2.846-2.9191.369-6.2073.9088-9.4536,1.5854h0ZM125.9166,60.4009v-2.5081c4.0349-.7512,8.0456-1.3252,11.1544-1.6572-.0448.8521-.1256,1.6781-.25,2.4735-2.9163.2563-6.848.8615-10.9044,1.6918h0ZM125.9166,56.0605v-2.6587c3.6358-.6582,7.3475-1.0978,11.1212-1.3053.0471.7909.0743,1.567.0766,2.3247-3.1037.3243-7.1312.892-11.1978,1.6393ZM125.9166,53.4018v2.6587c-1.0678.1961-2.1387.405-3.196.6247-2.571.5343-5.0698,1.1361-7.2709,1.7898v-1.516c.7713-.8175,1.9281-1.5273,3.748-2.0721,2.2076-.578,4.4484-1.074,6.7189-1.4851h0ZM125.9166,57.8928c-.9456.176-1.8924.362-2.8292.5567-2.7335.5681-5.3751,1.2115-7.6377,1.9074v2.6992c1.9899-.6299,4.1772-1.2223,6.4128-1.7569,1.3434-.3212,2.7057-.6222,4.0541-.8983v-2.5081h0ZM125.9166,62.2383v2.7479c-.4223.0881-.8438.1783-1.2639.271-3.0779.6786-6.0744,1.4799-8.6378,2.3746l-.3804-.3314-.1848-.1616v-2.1937c2.0809-.6789,4.4235-1.3198,6.8292-1.8953,1.2056-.2882,2.4265-.5601,3.6377-.8115h0ZM125.9166,66.825c-.2922.0621-.5845.125-.8756.1894-2.5611.5646-5.0598,1.2146-7.283,1.9318,1.258.7611,2.8207,1.2441,5.2194,1.0386.972-.2568,1.9519-.4946,2.9392-.7129v-2.4469h0ZM115.4497,72.4118v-1.1812c.3663.2679.7478.521,1.1543.7506-.3864.1404-.771.2838-1.1543.4306ZM115.4497,56.959v1.516c-.3948.1174-.7801.2361-1.1542.3566.2571-.6644.6094-1.2954,1.1542-1.8726h0ZM115.4497,60.3569v2.6992c-.9173.2902-1.7926.5885-2.6115.8923.4064-1.0159.64-2.0267.8682-3.0169.5497-.195,1.1327-.3866,1.7433-.5746h0ZM115.4497,64.9451v2.1937c-.5998-.5235-1.2126-1.0485-1.9015-1.5347.603-.2228,1.2391-.4427,1.9015-.659h0ZM115.4497,71.2306c-.6613-.4841-1.2725-1.0185-1.8901-1.559-1.1441-1.0004-2.319-2.0279-3.9898-2.6017l-2.1359-.7339,1.4258-1.7549c1.0715-1.3184,1.4295-2.8692,1.7742-4.3648.2313-1.0032.4587-1.9873.8252-2.9236-1.741.6296-3.4574,1.3104-5.1474,2.0421l.0022.0051c-1.3305.5898-2.2901,1.2112-2.9871,1.8584v10.5769c.3115.1882.6162.3798.9196.5709,1.9967,1.2566,3.9152,2.463,7.7751,1.4765,1.1282-.4975,2.2711-.9683,3.4282-1.4108v-1.1812h0ZM103.3268,78.3674v-2.8797c.8371.5131,1.6889.9913,2.6413,1.3428-.8918.4949-1.7722,1.0071-2.6413,1.5369ZM103.3268,61.1983v10.5769c-.8056-.487-1.6563-.9494-2.6413-1.3077.4748-1.4215.5743-2.7796.6698-4.1037.1329-1.8312.2608-3.577,1.9715-5.1655h0ZM103.3268,75.4877c-.254-.1556-.5066-.3144-.76-.474-1.2878-.8104-2.6084-1.6415-4.3461-1.9468l-2.2254-.3912,1.1327-1.9553c.8515-1.4701.9675-3.0524,1.0783-4.5788.074-1.0222.1468-2.0248.3631-3.0019-1.8745,1.0358-3.708,2.1359-5.4975,3.2987v12.3687c.2395.0997.4762.2012.7123.3021,2.206.9445,4.3234,1.8502,8.0924.1653.4796-.3078.9632-.6103,1.4502-.9071v-2.8797h0ZM93.0719,85.8889v-3.6545c1.0176.4298,2.0367.828,3.1578,1.0466-1.0766.841-2.1297,1.7101-3.1578,2.6079ZM93.0719,66.4384v12.3687c-.955-.398-1.9505-.7699-3.0954-.9907.2488-1.4769.1374-2.8307.0294-4.1505-.1961-2.3848-.3795-4.6293,2.8721-7.1014l.1939-.1261h0ZM93.0719,82.2344l-.5227-.2225c-1.4077-.6026-2.852-1.2211-4.6004-1.2503l-2.2569-.0386.8121-2.1044c.6089-1.5789.4788-3.1709.3526-4.7061-.0822-1.0032-.1629-1.9879-.1065-2.9693-1.0925.8515-2.1649,1.7266-3.2165,2.626v13.6159c.3297.0777.6548.1596.9782.2416,2.363.5969,4.629,1.1684,8.1681-1.1929l.392-.3449v-3.6545h0ZM83.5336,95.4788v-5.0423l.2123.0536c1.2694.3206,2.5163.6358,3.8656.6783-1.0173,1.0882-2.0032,2.2056-2.954,3.3528-.3863.3645-.7605.6817-1.1239.9576ZM83.5336,73.5692v13.6159c-.936-.2205-1.908-.4045-2.9849-.4402.0105-1.4955-.3175-2.8131-.6372-4.0963-.5817-2.3366-1.1274-4.525,1.8867-7.5558.5718-.515,1.1503-1.0233,1.7354-1.5236h0ZM83.5336,90.4365c-1.4165-.3566-2.8755-.6937-4.5318-.4601l-2.2328.315.4725-2.2048c.3575-1.6699-.0252-3.206-.3934-4.6846-.2412-.968-.4774-1.9168-.5786-2.8848-.3027.3234-.6029.6491-.9008.9771v15.4982c.4357.0277.864.0666,1.2897.1051,2.1575.1959,4.2367.3833,6.8752-1.6188v-5.0423h0ZM75.3687,106.5344v-6.3836c.3379.0235.6729.0539,1.006.0842,1.3119.1191,2.6008.235,3.9478.0629-.8175,1.2059-1.6021,2.4373-2.3496,3.693-.8995,1.1812-1.762,1.9874-2.6042,2.5435ZM75.3687,81.4943v15.4982c-.872-.0562-1.7722-.0686-2.7357.0501-.2231-1.4805-.7543-2.7286-1.2714-3.9438-.9555-2.2439-1.847-4.3387.8354-7.9194,1.0244-1.2569,2.082-2.486,3.1717-3.6851h0ZM75.3687,100.1508c-1.2025-.0839-2.4401-.0813-3.7525.3209l-2.1589.6619.1213-2.249c.0754-1.3989-.3274-2.6275-.8025-3.7945v12.9135c.5528-.0601,1.0965-.0963,1.6356-.1323,1.6552-.1103,3.2644-.2186,4.957-1.3369v-6.3836h0ZM68.7761,126.9603v-4.9362c.5576-.1698,1.1092-.3714,1.6543-.6313-.3801,1.317-.7276,2.649-1.0352,3.9954-.1933.5823-.4002,1.1036-.6191,1.5721h0ZM68.7761,118.6265v-7.4398c.6208-.0845,1.2362-.1256,1.8451-.1661,1.3167-.0882,2.6107-.1744,3.9169-.5573-.6114,1.303-1.1866,2.6268-1.7232,3.9702-1.2789,2.3952-2.6328,3.5402-4.0388,4.193ZM59.9315,150.6197l.6134-.815c1.0528-1.3991,2.3998-2.2028,3.7128-2.9865,1.1566-.6897,2.2924-1.368,3.2978-2.3324.038,1.1846.1044,2.3633.1973,3.534.1367,5.1743-1.8002,6.7921-3.8293,8.4829-.9881.8246-1.9947,1.6634-2.8885,2.8066-.3642-.2701-.733-.5054-1.1035-.7155v-7.9741h0ZM68.7761,95.0901v12.9135c-.7608.0825-1.5395.2098-2.3493.4422-.4513-1.4266-1.1676-2.5778-1.8646-3.6975-1.2461-2.0012-2.4137-3.878-.6472-7.5376,1.1052-1.9219,2.2813-3.7984,3.5212-5.6276.2509.9371.633,1.8352,1.0227,2.7507.1063.2501.2135.5018.3172.7563h0ZM68.7761,111.1867c-.9286.1264-1.8691.3498-2.8187.8135l-2.0276.9901-.2325-2.2504c-.1743-1.6883-1.0108-3.0316-1.8153-4.3239-.5244-.8419-1.0386-1.6677-1.4315-2.5512-.1755.3739-.3487.7492-.519,1.1259v12.64c.7747.9025,1.5517,1.8518,2.1518,3.0566,1.3209-.6186,2.5951-.9088,3.8474-1.1934.9669-.22,1.9174-.4366,2.8454-.8674v-7.4398h0ZM68.7761,122.0241v4.9362c-1.4487,3.1054-3.4174,3.8945-5.4615,4.7132-1.1171.4473-2.2524.9025-3.3831,1.6288v-9.2186l.392,1.4735,1.8462-1.294c1.4369-1.0078,2.9639-1.3556,4.4532-1.6943.7257-.1653,1.444-.3291,2.1532-.5448h0ZM59.9315,145.9286c.8884-.7287,1.8051-1.2758,2.7085-1.815,2.2317-1.3317,4.3651-2.6059,5.0763-7.5203.0918-1.2642.2165-2.52.371-3.7658-1.1375.7869-2.3575,1.2756-3.5991,1.7731-1.4173.5677-2.871,1.15-4.1369,2.374l-.4198.4056v8.5484ZM52.4262,151.2844c-.2089-2.0477-.3495-4.1164-.4187-6.2033.7421.6043,1.5647,1.1029,2.4049,1.612,1.2841.7782,2.6221,1.5892,3.5513,3.0249l1.2234,1.8907.7444-.989v7.9741c-.8479-.481-1.7059-.8316-2.5469-1.1749l-.0023.0051c-2.232-.9116-4.3092-1.7626-4.9561-6.1396h0ZM59.9315,104.9907v12.64l-.2446-.2838c-1.6597-1.9239-3.1981-3.708-1.3865-8.4056l-.0388-.0147c.5258-1.328,1.0831-2.6399,1.6699-3.9359h0ZM59.9315,124.0837l-.1888-.7095c-.4371-1.6432-1.459-2.8275-2.4401-3.9648-.6556-.7608-1.298-1.5052-1.8232-2.3312-.5083,1.7643-.9658,3.5498-1.3674,5.3569l.0229.0051c-1.055,4.9275.7435,6.4491,2.6841,8.0898.9973.8427,2.0231,1.7104,2.8866,2.9208.0751-.0507.1505-.1.2259-.1485v-9.2186h0ZM59.9315,137.3802l-1.2019,1.1616-.9164-2.0678c-.6894-1.5543-1.8845-2.5654-3.0323-3.5357-.7548-.6383-1.4938-1.264-2.135-1.9828-.2398,1.9516-.4232,3.922-.5363,5.9102-.1333,4.6695,1.8252,5.8581,3.9333,7.1354,1.1186.6775,2.2683,1.3754,3.31,2.4341.1914-.1789.3844-.347.5786-.5066v-8.5484Z" fill="#fdb913" fill-rule="evenodd" stroke-width="0"/><path d="M243.4978,210.056v-.5777l.2596.1621-.2596.4156h0ZM243.4978,205.7139v-2.4412l4.191.0757-1.5443,2.4715-2.6467-.106h0ZM243.4978,196.9035v-2.8264c.0714-.0482.1428-.1015.2145-.1596.2614-.2103.5389-.4521.832-.7257l1.3915-1.2138c.4241-.3821.8569-.6806,1.3028-.8963.4417-.2143.9029-.3231,1.3825-.3197.4807.0005.987.136,1.5199.4042.4564.2327.8362.5485,1.1393.9468.3067.3979.5181.8591.6403,1.3841.1211.5275.1344,1.0999.0431,1.7172-.093.6203-.309,1.2671-.65,1.9418-.2656.5221-.5927,1.0037-.9757,1.4465-.3826.4425-.8129.8308-1.2869,1.1679-.4734.337-.9819.6066-1.5199.8118l-.8459-2.1163c.3901-.1548.76-.3495,1.1075-.5823.3518-.2338.6659-.4972.9459-.794.2795-.2962.5049-.6148.6823-.9569.2055-.4045.3271-.7716.3629-1.1004.0379-.3286-.0037-.6098-.1211-.8484-.1176-.2384-.3058-.4241-.5678-.5573-.2046-.1044-.4016-.1514-.5864-.1395-.1874.0099-.3762.0658-.561.163-.186.1003-.3799.2327-.584.3997-.2004.1652-.4218.3532-.6562.5609l-1.4238,1.2377c-.2665.2409-.5587.4552-.8748.6446-.2883.1737-.5904.3103-.911.4104h0ZM243.4978,190.2648v-1.5305l.5266,1.2581c-.1848.0833-.3603.174-.5266.2724h0ZM243.4978,184.8566l11.3127,4.3426.9375-2.4403-11.6108-4.4569-.6394,1.6659v.8887h0ZM258.0925,179.8117l.8081-2.4865-9.8617-3.2043,1.1463-3.528-1.9661-.6386-3.0892,9.5088,1.9656.6386,1.1358-3.4943,9.8612,3.2043h0ZM261.3124,168.4817l.5431-2.5572-4.4544-.947-6.891-5.4922-.5655,2.6609,2.6867,1.908c.4116.2764.8158.5556,1.2163.8396.4008.2838.8144.576,1.2373.8737l-.0144.0691c-.5074.097-1.0029.19-1.4817.275-.4793.0876-.9615.1721-1.4493.2574l-3.2307.65-.5768,2.713,8.5252-2.1977,4.4552.9474ZM243.4978,183.9679v.8887l-.2974-.1143.2974-.7744h0ZM243.4978,188.7343v1.5305c-.2685.1584-.5137.3367-.7368.5349-.3628.3237-.6664.7208-.9093,1.1987-.1752.3433-.2787.6639-.315.9624-.036.2996-.0019.5607.1032.7863.1012.2268.2787.4031.5213.5301.2622.1273.5224.1539.775.0777.1845-.0573.3722-.1497.5616-.2778v2.8264l-.0995.0295c-.3549.0998-.726.1361-1.1107.108-.3863-.0318-.7806-.1463-1.1865-.3495-.4553-.2356-.8263-.5502-1.1129-.9442-.288-.3912-.4853-.8419-.5925-1.349-.1068-.5043-.1173-1.0449-.03-1.6178.0915-.5748.2849-1.1577.5839-1.7515.2319-.4536.5131-.8717.8465-1.2538.3342-.3844.7078-.7166,1.1185-1.0029.4122-.286.8521-.5077,1.3187-.6698l.2645.6318h0ZM243.4978,203.2727v2.4412l-2.7667-.1109-.9643,1.5435,3.731,2.3318v.5777l-1.1257,1.8011-6.4726-4.0447v-3.0824l2.2,1.3745.8988-1.438c.4465-.7144.6438-1.3476.5964-1.9012-.051-.5525-.3552-1.0069-.9167-1.3609-.3779-.2364-.7325-.3399-1.0619-.309-.3291.0297-.6454.176-.9447.4439-.2597.2293-.5176.5374-.7719.9227v-3.034c.2795-.2247.5706-.4087.8731-.551.4841-.2248.9963-.3147,1.5397-.2704.5412.0433,1.1183.2505,1.7232.6256.5258.3319.9323.7072,1.2186,1.1301.2877.4227.4726.8779.5494,1.3635.0765.4853.0578.9907-.0522,1.5154l1.7465.0315h0ZM235.8995,220.2746v-3.3849l2.4318-3.1124,1.6424,1.283-4.0742,5.2143ZM235.8995,199.428v3.034c-.0411.0618-.0817.1258-.1225.1916l-.8988,1.4383,1.0213.6381v3.0824l-4.0743-2.5458,2.4152-3.8645c.3625-.5859.7551-1.0976,1.1758-1.5327.157-.1613.318-.3084.4833-.4414h0ZM235.8995,216.8897l-1.016,1.3003-2.6226-2.0486,2.8282-3.6193-1.6419-1.2827-2.8275,3.6193-2.2649-1.7696,3.3281-4.26-1.6287-1.2724-2.4945,3.1924v5.0363l7.3567,5.7475.9831-1.2583v-3.3849h0ZM227.5597,228.8681v-6.5066l2.4434,4.3849-2.1203,2.2736-.3231-.1519ZM227.5597,210.7491v5.0363l-2.4435-1.9092,2.4435-3.1271h0ZM227.5597,222.3615l-3.9172-7.0294-1.8068,1.9378,3.2678,5.3665c.2434.4082.4852.8062.7245,1.1945.2387.3841.4802.7702.7214,1.156.2412.3861.487.7886.7328,1.2028l-.0601.0646c-.4323-.214-.853-.4289-1.2527-.6449-.3996-.216-.7999-.432-1.1956-.6483-.4003-.2157-.8121-.4308-1.2368-.6454l-5.6049-2.8602-1.328,1.4247v.832l10.9556,5.1559v-6.5066h0ZM216.6041,238.8897v-1.1341l.5394.7424-.5394.3917h0ZM216.6041,230.6188v-3.907l6.1908,6.8757-1.9426,1.7496-4.2482-4.7183ZM216.6041,222.8802v.832l-.5392-.2537.5392-.5783h0ZM216.6041,226.7118v3.907l-1.7669-1.9624v-3.907l1.7669,1.9624h0ZM216.6041,237.7556v1.1341l-1.6045,1.1656-.1624-.0737v-4.6579l1.7669,2.4319ZM214.8372,224.7494v3.907l-2.3063-2.5614,1.9426-1.7496.3637.404h0ZM214.8372,235.3237l-5.0034-6.8867-2.001,1.4536,2.9143,4.011c.2801.381.5828.7673.9079,1.154.3246.3875.6531.7648.9842,1.1341.3303.3654.6441.7118.9377,1.0352l-.0714.0519-2.6382-1.4068-6.9647-3.1244-1.3539.9836v1.6909l6.5058,8.9547,2.001-1.4537-2.9336-4.0379c-.284-.3864-.585-.7699-.9034-1.1478-.3197-.3804-.6414-.7531-.9657-1.1194-.3257-.3625-.6361-.7149-.9369-1.0536l.0709-.0521,2.6433,1.3827,6.8071,3.0886v-4.6579h0ZM202.5487,247.9875v-5.2897c.4363.8657.6945,1.6611.775,2.3853.1021.9411-.0666,1.7745-.5042,2.505-.082.1364-.1724.2696-.2708.3994ZM202.5487,233.7292v1.6909l-.8039-1.1066.8039-.5843h0ZM202.5487,242.6978v5.2897c-.43.5669-1.017,1.0726-1.7648,1.5165-.9085.552-1.7929.8521-2.6478.8981-.8555.0465-1.6782-.1911-2.4665-.72-.7889-.5293-1.5409-1.3814-2.2501-2.5566l-3.5229-5.8629,2.2411-1.3465,3.6351,6.0503c.3319.5522.6639.9899.9867,1.3119.3246.3214.65.5442.9709.6653.3223.1202.644.1522.9683.0981.322-.0533.6477-.1803.9771-.3819.3342-.1973.6069-.43.8124-.6936.2056-.2639.3354-.5678.3858-.9116.0539-.3461.0131-.7399-.1142-1.1798-.1242-.4414-.3549-.94-.6871-1.4919l-3.6352-6.0505,2.1501-1.2921,3.5226,5.8629c.1622.271.3084.5361.4385.7946h0ZM175.0796,259.7212v-1.2738l.688,1.1148-.688.159h0ZM175.0796,248.7537l3.566,9.7974,7.437-2.7071-.7132-1.9584-4.9802,1.813-3.5405-9.7279-1.7691.6434v2.1396ZM175.0796,246.6141v2.1396l-.6877-1.8893.6877-.2503h0ZM175.0796,258.4474l-6.0939-9.874v4.2242c.2749.5074.5519,1.0004.83,1.4814l.6845,1.239-1.5145.3495v1.9837l2.5007-.5771,1.6129,2.9044,1.9803-.4573v-1.2738ZM168.9857,248.5734v4.2242l-.1882-.3506c-.3362-.6322-.6772-1.258-1.0154-1.8729l-.0692.0165c-.0093.7032-.0303,1.4122-.0586,2.1265-.0284.7132-.0675,1.4091-.1109,2.0863l-.072,1.4137,1.5143-.3496v1.9837l-1.6305.3765-.1766,3.3179-2.5818.5959,1.2813-13.0592,2.9948-.6917.1128.1828h0ZM156.6006,258.5996v-1.9823c.7835-.1097,1.3657-.3501,1.7498-.7191.3971-.387.5593-.9091.4805-1.5687-.0542-.4422-.1968-.7827-.4278-1.0199-.2307-.2367-.5428-.3904-.94-.4544-.2545-.0431-.5422-.0579-.8625-.044v-1.9879c.4779-.0346.9354-.0329,1.3708.0051.6029.0556,1.1455.1979,1.6248.43.4796.2344.8717.576,1.1789,1.0264.3076.4476.5089,1.0265.5984,1.7326.0732.6174.0372,1.1695-.1111,1.6585-.1474.4898-.3852.9199-.714,1.2847-.3289.3651-.7336.6684-1.2107.9133l3.6533,4.6817-2.8925.3555-3.2389-4.3433-.259.0318ZM156.6006,250.8233v1.9879c-.1786.0077-.3674.0244-.5661.0499l-1.6835.2069.4632,3.7698,1.6829-.2069.1035-.0136v1.9823l-1.5466.1899.5731,4.6704-2.5945.3186-1.516-12.3438,4.5238-.5553c.1897-.0241.3765-.0428.5602-.0561h0ZM103.6273,255.732v-1.9468c.072-.4997.1944-1.0344.3673-1.6038l1.9996-6.541,2.5002.7642-2.0634,6.7502c-.1882.616-.2917,1.1554-.3149,1.6115-.0216.4558.0309.847.155,1.1662.1265.3197.3181.5805.576.7852.2546.2035.5667.3608.9369.4705.3708.1165.7254.1636,1.0596.14.3333-.0243.6457-.1309.9354-.3234.2931-.1913.5582-.4856.8002-.8745.2444-.388.4604-.8929.6489-1.5089l2.0642-6.7501,2.3989.7336-1.9998,6.5409c-.4042,1.3122-.9227,2.3219-1.5511,3.0294-.6313.7056-1.3641,1.1379-2.1991,1.3014-.838.1624-1.7657.0868-2.7865-.231-1.0182-.3053-1.8326-.7622-2.4392-1.3666-.5701-.5683-.9346-1.2832-1.0882-2.147h0ZM103.6273,246.6308l.0782-.0345c-.0241-.0678-.0502-.1355-.0782-.2036v.2381h0ZM116.6496,261.5921l7.7687,1.51.3974-2.0457-5.2025-1.0112,1.9755-10.1622-2.5659-.4986-2.3732,12.2077h0ZM128.3723,263.5007l2.6048.2279.9039-10.33,3.6953.3234.1803-2.0594-9.9604-.8711-.1806,2.0591,3.6604.3203-.9037,10.3298h0ZM143.3528,264.4826c1.0684-.032,1.9704-.2625,2.71-.6888.7361-.4269,1.2875-1.0738,1.6554-1.9469.364-.873.5253-1.997.4805-3.3692l-.239-6.8352-2.5072.087.246,7.0546c.0227.6435-.017,1.1914-.1224,1.6382-.1021.4464-.2569.8109-.472,1.0868-.2103.2763-.4714.4793-.7795.6105-.3076.1313-.6585.2024-1.0466.2129-.3864.0167-.7322-.0306-1.0395-.14-.3098-.1097-.5757-.294-.7999-.555-.2211-.2611-.3983-.614-.5261-1.0525-.1264-.4386-.2047-.982-.2273-1.6263l-.2461-7.054-2.613.0913.239,6.836c.0504,1.3717.2948,2.4812.7285,3.3268.4331.845,1.0375,1.4516,1.8082,1.8255.7699.3741,1.6892.5408,2.751.4983ZM103.6273,246.3927v.2381l-1.8383.8144c-.1111-.2772-.2429-.5368-.4005-.7835-.1568-.2426-.3447-.4665-.5602-.6658-.2199-.1984-.4765-.3708-.7761-.5105-.4507-.2101-.9082-.3152-1.37-.3144-.4634-.0025-.9141.0998-1.3532.3027-.4388.2033-.8482.51-1.2286.9137-.3781.4079-.7115.9138-.9972,1.519-.3796.8212-.5797,1.584-.5995,2.2887-.0185.7019.1292,1.3181.4453,1.8457.3149.5303.786.9414,1.4116,1.2359.3374.1545.6707.2548,1.0083.297.3342.042.6648.038.9936-.0121.3274-.0482.6497-.1327.9663-.2543l.5956,1.9834c-.7421.3158-1.4942.4657-2.2547.4538-.7642-.013-1.5285-.1995-2.2983-.555-.6001-.2801-1.1333-.6279-1.5993-1.0426-.4672-.4127-.8524-.8824-1.1574-1.4114-.2226-.3875-.3952-.7999-.5159-1.2378v-3.098c.1236-.5006.307-1.0151.5513-1.5443.3495-.7424.7634-1.378,1.2379-1.908.4731-.527.993-.9522,1.5539-1.272.5641-.3174,1.1526-.5343,1.7643-.6477.6129-.1165,1.2331-.1301,1.857-.0465.6265.0854,1.243.2679,1.8428.5474.5009.2367.9354.5233,1.3031.8578.3662.3353.6744.6922.9224,1.0732.201.3121.3679.6225.4958.9331h0ZM103.6273,253.7852c-.0941.6531-.1029,1.2464-.027,1.7793.0083.0564.017.1123.027.1675v-1.9468h0ZM92.0988,240.2291v-.4853l.2012.1069-.2012.3784ZM92.0988,239.7438v.4853l-5.6379,10.6021-1.4774-.7857v-2.0033l5.008-9.4189,2.1073,1.1205h0ZM92.0988,248.3997c-.0528.2137-.0947.4243-.1259.6332-.1043.6971-.1003,1.357.0153,1.9797.0301.165.0669.3266.1106.4851v-3.098h0ZM84.9835,240.6109c.0539-.0734.1066-.1497.1585-.2287.3855-.5984.6032-1.1716.6559-1.7119.0539-.5425-.0272-1.0559-.2443-1.5443-.1438-.3212-.3342-.6304-.5701-.9272v4.4121ZM84.9835,236.1988v4.4121c-.2999.4099-.6298.7336-.9927.9706-.4274.2801-.8858.4572-1.3728.525-.4864.068-.9916.0405-1.5145-.0788l-.2104,5.9351-.0782-.0507v-8.1337c.2832.0847.5508.1185.8028.1015.5527-.0414,1.0125-.3374,1.3765-.893.2426-.3736.3523-.7262.3276-1.0559-.024-.3296-.1652-.6485-.4277-.9527-.2608-.3061-.6276-.6111-1.0987-.9136l-.9805-.6369v-2.3446l2.2592,1.467c.5791.373,1.0837.7741,1.5114,1.2021.1443.1457.2773.2943.398.4465h0ZM84.9835,248.0422v2.0033l-.8303-.4417.8303-1.5616ZM80.8149,233.0832v2.3446l-.4417-.2869-2.0687,3.1853,1.4222.9238c.3855.2503.7483.4263,1.0882.5284v8.1337l-2.3658-1.5369.3107-5.4088-1.5259-.991-2.5634,3.9464-.4949-.3215v-3.7156l5.076-7.8166,1.5633,1.0151h0ZM74.1756,231.6543v-3.6791c.288.2778.5332.5627.7367.8566.2957.4343.5221.8663.6724,1.2977.1482.4303.2455.8436.2883,1.2399l-1.6974.2849ZM74.1756,227.9752v3.6791l-.3807.064c-.0377-.2863-.1049-.5677-.1967-.8433-.0933-.2778-.2285-.5456-.4122-.8101-.18-.2642-.4243-.5199-.7259-.7685-.4238-.3427-.8723-.5794-1.3451-.7103-.4722-.1333-.9521-.1582-1.4411-.0783-.4864.0817-.9675.2724-1.4386.5692-.4723.2979-.9181.7087-1.3419,1.2269-.5695.7027-.9454,1.3969-1.1282,2.0812-.1811.682-.1573,1.3396.0726,1.9689.225.6296.6718,1.2141,1.3339,1.7541.1661.1349.3413.2514.5225.3509.1785.1015.3583.1789.5377.2339.1811.0569.3532.0839.5122.0836l1.5443-1.9074-1.7988-1.4565,1.2801-1.58,3.6105,2.9234-3.5323,4.3625c-.4056.0283-.8455-.0037-1.3189-.0981-.4748-.0961-.9607-.2588-1.459-.4896-.4955-.2313-.9834-.5365-1.4582-.9178-.5275-.4263-.9725-.8895-1.3379-1.3896v-6.8595c.1496-.2242.3141-.449.4938-.6735.5187-.6361,1.0732-1.1529,1.6645-1.5503.5884-.3949,1.2007-.678,1.8272-.8487.6287-.1675,1.2611-.2285,1.8938-.1817.6341.0448,1.2526.1931,1.8587.4419.6052.2489,1.1803.5916,1.7223,1.0307.1571.1296.3042.2602.4414.3929h0ZM74.1756,239.8847v3.7156l-1.6971-1.1024,1.6971-2.6132h0ZM64.2739,222.7093v-3.3526l1.1452,1.2277-1.1452,2.1249ZM64.2739,219.3567v3.3526l-3.8129,7.075v-4.8918l.3302-.5479c.3405-.5913.6976-1.1897,1.0772-1.7978.379-.6068.7506-1.2154,1.1137-1.8153l-.0482-.0518c-.6142.3432-1.2384.6797-1.8708,1.0122-.2019.106-.4025.2098-.6021.3124v-2.37l2.8613-1.2975.9516,1.0199h0ZM64.2739,229.3639c-.3912.5873-.6801,1.1747-.8666,1.7646-.2574.818-.3364,1.6126-.2367,2.3921.099.7761.3563,1.5109.7725,2.2042.102.1701.212.3362.3308.4986v-6.8595ZM60.461,219.6343v2.37c-.4258.2185-.8464.43-1.2609.6352l-1.26.6446,2.1201,2.2734.4008-.665v4.8918l-1.2702,2.357-1.8672-2.003,1.7087-2.8491-2.8913-3.1008-2.9616,1.5058-1.8074-1.9381,9.089-4.1218h0ZM47.1781,214.1529v-3.1912l6.2813-4.3983,1.4995,2.1416-7.7808,5.4479h0ZM47.1781,205.8641v-2.9577l2.577-1.61,1.3292,2.1274-3.9062,2.4403ZM47.1781,202.9064v2.9577l-1.8949,1.184c-1.1654.7249-2.2196,1.1472-3.1575,1.2683-.584.0737-1.1277.0422-1.6325-.0941v-2.5226c.1899.0941.396.1559.6182.1848.3464.0479.7399,0,1.1775-.1349.4391-.1324.9332-.3719,1.48-.7129l3.4092-2.1303h0ZM47.1781,210.9617v3.1912l-2.4066,1.6852-1.4992-2.1416,3.9058-2.7348h0ZM40.4932,201.2028v-3.1178l5.2174-3.2604,1.3859,2.2172-5.9865,3.7406c-.2251.1406-.4306.281-.6168.4204h0ZM40.4932,193.8747v-2.8426l2.7309-1.2158,1.0559,2.3721-3.7868,1.6863h0ZM40.4932,185.6177v-1.9353l.7191,1.6152-.7191.3201ZM29.7507,163.3376c.2234.0267.4485.0527.6755.078.7101.0776,1.4162.1479,2.1178.2069l.0108.07c-.637.2943-1.2847.5908-1.9392.8822-.2928.1306-.5808.2622-.8649.3945v2.5376l4.9062-2.5736-.481-3.0359-4.4252-.7489v2.1892h0ZM40.4932,183.6824v1.9353l-3.7486,1.6687,2.0124,4.5187,1.7362-.773v2.8426l-7.5739,3.3724-1.0565-2.3729,4.913-2.1869-2.012-4.5187-4.9124,2.1869-.1007-.2259v-2.5909l10.3984-4.6293.3441.773h0ZM40.4932,198.085v3.1178c-.2653.199-.4913.396-.6772.5896-.3158.3291-.5329.6594-.648.9814-.1148.3248-.1412.6468-.0814.9703.0587.3211.1914.6446.3983.9703.2032.3311.4405.5987.7084.8002.0952.0714.195.1332.2999.1851v2.5226c-.3079-.0834-.6015-.2053-.8807-.366-.7396-.4269-1.3899-1.0928-1.9514-2.0021-.5686-.8989-.8836-1.7776-.9445-2.632-.0615-.8541.1616-1.6809.6772-2.4783.5153-.7982,1.3541-1.5647,2.5166-2.2947l.5828-.3642h0ZM29.7507,182.7133v-2.2944l.8955-.4017c.4535-.2004.9139-.3965,1.3827-.5859.4689-.1896.9292-.3577,1.3785-.5065l4.7149-1.5322.7645,2.3522-9.1361,2.9685h0ZM29.7507,180.1136l1.747-1.6826,5.1239-5.6583-.8246-2.5367-6.0463,1.9644v2.5966c.3657-.1262.7331-.2639,1.1002-.4128.4612-.1865.9147-.377,1.3631-.5726.4456-.1975.8768-.3841,1.2921-.5655l.0275.0839-2.132,2.086-1.6509,1.8077v2.8899ZM26.947,162.9887l1.4051.1706c.4575.0615.9238.1213,1.3986.1783v-2.1892l-8.5127-1.4408.4144,2.6172,3.2973.4076.6636,4.1876-3.0107,1.4066.4286,2.7048,6.7195-3.5246v-2.5376c-.3503.1633-.6947.328-1.0335.4933l-1.2838.5967-.4864-3.0705h0ZM29.7507,172.2004v2.5966l-.2701.0912-4.7469,1.5426-.7642-2.3519,5.7812-1.8785h0ZM29.7507,177.2237v2.8899l-.4065.3915.0275.0842.379-.1704v2.2944l-2.6918.8745-.8189-2.5198,3.5107-3.8443h0ZM29.7507,187.5387v2.5909l-.9632-2.162.9632-.4289Z" fill="#007642" stroke-width="0"/></g></svg>